<?xml version="1.0" encoding="UTF-8" standalone="no"?>
<!DOCTYPE svg PUBLIC "-//W3C//DTD SVG 1.1//EN" "http://www.w3.org/Graphics/SVG/1.1/DTD/svg11.dtd">
<svg width="100%" height="100%" viewBox="0 0 1887 1013" version="1.1" xmlns="http://www.w3.org/2000/svg" xmlns:xlink="http://www.w3.org/1999/xlink" xml:space="preserve" xmlns:serif="http://www.serif.com/" style="fill-rule:evenodd;clip-rule:evenodd;stroke-linejoin:round;stroke-miterlimit:2;">
    <g transform="matrix(1,0,0,1,-72834.7,-4510.09)">
        <g transform="matrix(8.33333,0,0,8.33333,70006.8,3774.23)">
            <g transform="matrix(1,0,0,1,154.909,-59.6316)">
                <g transform="matrix(1.80787,0,0,1.80787,-116248,-7579.54)">
                    <path d="M64416.5,4316.97C64414,4316.97 64411.6,4316.57 64409.5,4315.79C64407.2,4314.98 64405.5,4313.93 64404.2,4312.68C64404.2,4312.67 64404.2,4312.65 64404.2,4312.64C64403.3,4311.72 64403,4310.66 64403.1,4309.47C64403.3,4308.34 64403.8,4307.41 64404.7,4306.69C64405.8,4305.83 64406.9,4305.54 64408,4305.67C64409,4305.81 64409.9,4306.26 64410.6,4307.06C64410.6,4307.07 64410.6,4307.08 64410.7,4307.09C64411.1,4307.59 64411.8,4308.02 64412.8,4308.45C64413.9,4308.91 64415,4309.13 64416.3,4309.13C64417.9,4309.13 64419,4308.94 64419.9,4308.44C64420.3,4308.14 64420.6,4307.81 64420.6,4307.34C64420.7,4306.86 64420.4,4306.49 64419.9,4306.14C64419,4305.5 64417.5,4305.04 64415.2,4304.64C64415.2,4304.64 64415.2,4304.64 64415.2,4304.64C64411.5,4303.9 64408.8,4302.73 64407.1,4301.25C64405.2,4299.58 64404.2,4297.52 64404.2,4295.1C64404.2,4292.95 64404.9,4291.18 64406.2,4289.76C64407.4,4288.44 64408.9,4287.45 64410.7,4286.8C64412.5,4286.19 64414.3,4285.88 64416.2,4285.88C64418.6,4285.88 64420.8,4286.28 64422.6,4287.06C64424.6,4287.87 64426.2,4289 64427.3,4290.42C64428.1,4291.32 64428.4,4292.28 64428.4,4293.27C64428.3,4294.34 64427.8,4295.25 64426.9,4295.98C64426.8,4296 64426.8,4296.01 64426.8,4296.02C64425.9,4296.63 64424.9,4296.86 64423.7,4296.64C64422.6,4296.45 64421.7,4296 64421,4295.32C64421,4295.31 64421,4295.31 64421,4295.3C64420.3,4294.7 64419.7,4294.27 64418.9,4294.04C64418.1,4293.79 64417.1,4293.67 64416.1,4293.67C64414.9,4293.67 64413.9,4293.85 64413.1,4294.25C64412.7,4294.42 64412.5,4294.62 64412.5,4294.95C64412.5,4295.21 64412.5,4295.45 64412.7,4295.66C64412.9,4295.94 64413.3,4296.11 64413.8,4296.33C64414.7,4296.69 64415.9,4297.03 64417.6,4297.37C64421.8,4298.18 64424.6,4299.41 64426.2,4300.9C64428,4302.59 64428.9,4304.65 64428.9,4307.1C64428.9,4308.97 64428.4,4310.66 64427.4,4312.17C64426.5,4313.64 64425,4314.84 64423.1,4315.71C64421.4,4316.53 64419.2,4316.97 64416.5,4316.97Z" style="fill:white;"/>
                </g>
                <g transform="matrix(1.80787,0,0,1.80787,-116246,-7579.54)">
                    <path d="M64433.8,4316.82C64432.6,4316.82 64431.6,4316.4 64430.8,4315.6C64430,4314.81 64429.5,4313.81 64429.5,4312.6L64429.5,4290.35C64429.5,4289.08 64430,4288.07 64430.8,4287.3C64431.6,4286.54 64432.6,4286.13 64433.8,4286.13C64435,4286.13 64436,4286.55 64436.8,4287.32C64436.9,4287.4 64437,4287.49 64437,4287.57C64437.6,4287.23 64438.2,4286.93 64438.8,4286.68C64440.2,4286.12 64441.7,4285.83 64443.3,4285.83C64446.7,4285.83 64449.3,4286.88 64451.3,4288.93C64452.2,4288.18 64453.1,4287.55 64454.2,4287.04C64455.9,4286.24 64457.8,4285.83 64460,4285.83C64463.3,4285.83 64466.1,4286.95 64468.2,4289.14C64470.2,4291.28 64471.3,4294.32 64471.3,4298.3L64471.3,4312.6C64471.3,4313.8 64470.9,4314.79 64470.2,4315.58C64469.4,4316.38 64468.4,4316.82 64467.1,4316.82C64465.9,4316.82 64464.9,4316.4 64464.1,4315.6C64463.3,4314.81 64462.9,4313.81 64462.9,4312.6L64462.9,4298.3C64462.9,4296.75 64462.6,4295.57 64461.8,4294.81C64461.1,4294.09 64460.1,4293.77 64459,4293.77C64457.7,4293.77 64456.7,4294.18 64455.9,4295.03C64455.1,4295.94 64454.7,4297.1 64454.7,4298.5L64454.7,4312.6C64454.7,4313.8 64454.3,4314.79 64453.5,4315.58C64452.7,4316.38 64451.7,4316.82 64450.5,4316.82C64449.3,4316.82 64448.3,4316.4 64447.5,4315.6C64446.7,4314.81 64446.2,4313.81 64446.2,4312.6L64446.2,4298.3C64446.2,4296.75 64446,4295.57 64445.2,4294.81C64444.5,4294.09 64443.5,4293.77 64442.3,4293.77C64441.1,4293.77 64440,4294.18 64439.2,4295.04C64438.4,4295.94 64438,4297.1 64438,4298.5L64438,4312.6C64438,4313.8 64437.6,4314.79 64436.8,4315.58C64436,4316.38 64435,4316.82 64433.8,4316.82Z" style="fill:white;"/>
                </g>
                <g transform="matrix(1.80787,0,0,1.80787,-116247,-7579.81)">
                    <path d="M64478.7,4316.77C64477.5,4316.77 64476.5,4316.35 64475.7,4315.55C64474.9,4314.76 64474.4,4313.76 64474.4,4312.55L64474.4,4290.3C64474.4,4289.03 64474.9,4288.02 64475.7,4287.25C64476.5,4286.49 64477.5,4286.08 64478.7,4286.08C64479.9,4286.08 64480.9,4286.5 64481.7,4287.27C64482.5,4288.04 64482.9,4289.04 64482.9,4290.3L64482.9,4312.55C64482.9,4313.75 64482.5,4314.74 64481.7,4315.53C64480.9,4316.33 64479.9,4316.77 64478.7,4316.77Z" style="fill:white;"/>
                </g>
                <g transform="matrix(1.80787,0,0,1.80787,-116247,-7580.75)">
                    <path d="M64478.7,4284.97C64477.3,4284.97 64476.1,4284.48 64475.2,4283.5C64474.2,4282.52 64473.7,4281.36 64473.7,4280C64473.7,4278.65 64474.2,4277.48 64475.2,4276.5C64476.1,4275.52 64477.3,4275.03 64478.7,4275.03C64480,4275.03 64481.2,4275.52 64482.2,4276.5C64483.1,4277.48 64483.6,4278.65 64483.6,4280C64483.6,4281.36 64483.1,4282.52 64482.2,4283.5C64481.2,4284.48 64480,4284.97 64478.7,4284.97Z" style="fill:white;"/>
                </g>
                <g transform="matrix(1.80787,0,0,1.80787,-116248,-7579.54)">
                    <path d="M64494.7,4316.77C64492.9,4316.77 64491.3,4316.26 64489.9,4315.26C64488.5,4314.3 64487.4,4312.99 64486.6,4311.32C64485.9,4309.73 64485.5,4307.91 64485.5,4305.85L64485.5,4278.55C64485.5,4277.33 64486,4276.35 64486.7,4275.57C64487.5,4274.8 64488.5,4274.38 64489.7,4274.38C64490.9,4274.38 64491.9,4274.8 64492.7,4275.57C64493.5,4276.35 64493.9,4277.33 64493.9,4278.55L64493.9,4305.85C64493.9,4306.74 64494,4307.48 64494.4,4308.06C64494.5,4308.25 64494.5,4308.43 64494.7,4308.43L64496,4308.43C64497.1,4308.43 64498.1,4308.86 64498.8,4309.69C64499.5,4310.45 64499.9,4311.41 64499.9,4312.6C64499.9,4313.88 64499.4,4314.93 64498.3,4315.74C64497.4,4316.4 64496.2,4316.77 64494.8,4316.77L64494.7,4316.77Z" style="fill:white;"/>
                </g>
                <g transform="matrix(1.80787,0,0,1.80787,-116243,-7579.54)">
                    <path d="M64512.1,4316.97C64509,4316.97 64506.3,4316.3 64503.9,4314.98C64501.5,4313.65 64499.6,4311.81 64498.2,4309.47C64496.8,4307.14 64496.1,4304.47 64496.1,4301.45C64496.1,4298.41 64496.8,4295.74 64498.1,4293.42C64499.4,4291.07 64501.2,4289.22 64503.5,4287.89C64505.8,4286.56 64508.4,4285.88 64511.3,4285.88C64514.3,4285.88 64516.8,4286.56 64518.9,4287.86C64521,4289.17 64522.7,4290.98 64523.8,4293.3C64524.9,4295.52 64525.4,4298.09 64525.4,4301C64525.4,4302.12 64525,4303.04 64524.3,4303.78C64523.5,4304.49 64522.6,4304.87 64521.5,4304.87C64521.5,4304.87 64504.7,4304.87 64504.7,4304.87C64505.1,4305.9 64505.8,4306.79 64506.7,4307.54C64508.2,4308.75 64510,4309.33 64512.1,4309.33C64512.9,4309.33 64513.8,4309.17 64514.7,4308.85C64515.6,4308.54 64516.3,4308.18 64516.9,4307.77C64516.9,4307.76 64516.9,4307.76 64516.9,4307.76C64517.7,4307.18 64518.5,4306.89 64519.4,4306.86C64520.5,4306.83 64521.3,4307.14 64522.1,4307.78C64522.1,4307.78 64522.1,4307.79 64522.1,4307.8C64523.1,4308.64 64523.5,4309.6 64523.6,4310.61C64523.6,4311.74 64523.2,4312.75 64522.1,4313.57C64520.9,4314.57 64519.3,4315.4 64517.4,4316.03C64515.6,4316.66 64513.8,4316.97 64512.1,4316.97ZM64511.3,4293.52C64509.3,4293.52 64507.7,4294.03 64506.5,4295.13C64505.7,4295.81 64505.2,4296.61 64504.8,4297.53C64504.8,4297.53 64517,4297.53 64517,4297.53C64516.7,4296.6 64516.2,4295.78 64515.5,4295.08C64514.5,4294.01 64513.1,4293.52 64511.3,4293.52Z" style="fill:white;"/>
                </g>
                <g transform="matrix(1.05171,0,0,1.05171,24.1961,13.3596)">
                    <g transform="matrix(0.483336,0,0,0.483336,-30898.8,-1852.18)">
                        <path d="M64405.7,4274.07C64405.9,4270.99 64406.7,4268.26 64408,4265.87C64409.7,4262.75 64412,4260.33 64415,4258.6C64418,4256.9 64421.4,4256.01 64425.2,4256.01C64427.2,4256.01 64428.9,4256.67 64430.2,4257.86L64431.2,4258.9L64431.9,4260.15L64432.3,4261.51L64432.5,4262.89L64432.3,4264.27L64431.9,4265.62L64431.2,4266.83L64430.3,4267.85C64428.9,4269.1 64427.3,4269.77 64425.2,4269.77C64423.7,4269.77 64422.4,4270.22 64421.5,4271.23C64420.8,4272 64420.4,4272.94 64420.2,4274.06L64423.7,4274.06C64424.6,4274.06 64425.4,4274.2 64426.2,4274.47L64427.4,4275.05L64428.5,4275.86L64429.4,4276.92L64430.1,4278.15L64430.5,4279.48C64430.6,4279.89 64430.6,4280.33 64430.6,4280.79L64430.5,4282.1L64430.1,4283.4L64429.4,4284.59L64428.5,4285.58L64427.4,4286.4L64426.2,4286.97C64425.4,4287.24 64424.6,4287.39 64423.7,4287.39L64420,4287.39L64420,4311.48C64420,4313.64 64419.3,4315.35 64418,4316.66C64416.7,4317.95 64414.9,4318.71 64412.6,4318.71L64411.3,4318.59L64410,4318.19C64409.2,4317.87 64408.5,4317.39 64407.8,4316.75L64406.8,4315.62L64406.1,4314.31C64405.7,4313.47 64405.6,4312.52 64405.6,4311.48L64405.6,4287.37C64404.8,4287.32 64404.2,4287.19 64403.6,4286.97L64402.3,4286.4L64401.2,4285.58L64400.4,4284.59L64399.7,4283.4L64399.3,4282.1L64399.2,4280.79C64399.2,4280.33 64399.2,4279.89 64399.3,4279.48L64399.7,4278.15L64400.3,4276.92L64401.2,4275.86L64402.3,4275.05L64403.6,4274.47C64404.2,4274.25 64404.9,4274.11 64405.7,4274.07Z" style="fill:white;"/>
                    </g>
                    <g transform="matrix(0.483336,0,0,0.483336,-30898.8,-1852.18)">
                        <path d="M64462.4,4315.73C64461.8,4316.15 64461.1,4316.53 64460.4,4316.88C64457.6,4318.28 64454.4,4319 64451.1,4319C64446.9,4319 64443.2,4317.94 64439.8,4315.85C64436.6,4313.79 64434,4311 64432.1,4307.47C64430.2,4304 64429.3,4300.09 64429.3,4295.71C64429.3,4291.3 64430.3,4287.33 64432.4,4283.81C64434.4,4280.28 64437.2,4277.48 64440.7,4275.44C64444.2,4273.39 64448.1,4272.35 64452.5,4272.35C64456.9,4272.35 64460.8,4273.39 64464.3,4275.44C64467.7,4277.49 64470.5,4280.28 64472.6,4283.81C64474.6,4287.33 64475.6,4291.3 64475.6,4295.71L64475.6,4311.55C64475.6,4313.62 64474.9,4315.33 64473.6,4316.7C64472.2,4318.06 64470.5,4318.78 64468.4,4318.78C64466.3,4318.78 64464.6,4318.06 64463.3,4316.7C64463,4316.39 64462.7,4316.07 64462.4,4315.73ZM64452.5,4305.38C64454.2,4305.38 64455.7,4304.99 64457.1,4304.17C64458.4,4303.34 64459.5,4302.21 64460.3,4300.77C64461.1,4299.27 64461.5,4297.58 64461.5,4295.71C64461.5,4293.8 64461.1,4292.08 64460.3,4290.57C64459.5,4289.14 64458.4,4288 64457.1,4287.18C64455.7,4286.36 64454.2,4285.97 64452.5,4285.97C64450.8,4285.97 64449.3,4286.37 64447.9,4287.19C64446.6,4288.02 64445.5,4289.16 64444.7,4290.6C64443.9,4292.1 64443.5,4293.81 64443.5,4295.71C64443.5,4297.57 64443.9,4299.25 64444.7,4300.74C64445.5,4302.19 64446.6,4303.33 64447.9,4304.16C64449.3,4304.98 64450.8,4305.38 64452.5,4305.38Z" style="fill:white;"/>
                    </g>
                    <g transform="matrix(0.483336,0,0,0.483336,-30898.8,-1852.18)">
                        <path d="M64517,4289.77C64515.5,4290.85 64513.8,4291.21 64512,4290.83C64510.5,4290.53 64509.2,4289.81 64508,4288.6C64507.9,4288.58 64507.9,4288.55 64507.9,4288.53C64506.3,4286.81 64504.3,4285.97 64501.9,4285.97C64499.3,4285.97 64497.2,4286.77 64495.6,4288.48C64493.9,4290.29 64493.2,4292.72 64493.2,4295.71C64493.2,4297.62 64493.6,4299.33 64494.4,4300.82C64495.1,4302.23 64496.2,4303.35 64497.5,4304.17C64498.8,4305 64500.4,4305.38 64502.2,4305.38C64504.5,4305.38 64506.3,4304.89 64507.7,4303.73C64507.7,4303.72 64507.7,4303.71 64507.7,4303.7C64509.1,4302.58 64510.6,4302.01 64512.1,4301.88C64513.8,4301.72 64515.4,4302.22 64516.8,4303.37C64518.4,4304.72 64519.2,4306.3 64519.4,4307.98C64519.7,4309.89 64519.1,4311.65 64517.6,4313.18C64517.5,4313.21 64517.5,4313.24 64517.5,4313.27C64513.4,4317.06 64508.3,4319 64502.2,4319C64497.7,4319 64493.8,4317.95 64490.3,4315.91C64486.7,4313.86 64484,4311.07 64482,4307.54C64480,4304.06 64479,4300.12 64479,4295.71C64479,4291.21 64480,4287.22 64481.9,4283.73C64483.9,4280.16 64486.6,4277.37 64490.1,4275.36C64493.5,4273.37 64497.4,4272.35 64501.9,4272.35C64508.5,4272.35 64514.1,4274.89 64518.5,4279.98C64520.1,4281.76 64520.5,4283.64 64520,4285.53C64519.6,4287.1 64518.7,4288.56 64517,4289.76C64517,4289.76 64516.8,4289.95 64517,4289.77Z" style="fill:white;"/>
                    </g>
                    <g transform="matrix(0.483336,0,0,0.483336,-30898.8,-1852.18)">
                        <path d="M64527.1,4274.06L64527.1,4267.44C64527.1,4266.44 64527.3,4265.53 64527.6,4264.71L64528.2,4263.43L64529.1,4262.33L64530.2,4261.43L64531.5,4260.77C64532.3,4260.45 64533.2,4260.27 64534.2,4260.27C64535.2,4260.27 64536.2,4260.45 64537,4260.77L64538.3,4261.43L64539.4,4262.33L64540.3,4263.43L64540.9,4264.71C64541.2,4265.53 64541.4,4266.44 64541.4,4267.44C64541.4,4267.44 64541.4,4274.06 64541.4,4274.06L64543.8,4274.06C64544.8,4274.06 64545.6,4274.2 64546.4,4274.47L64547.6,4275.05L64548.7,4275.86L64549.6,4276.92L64550.3,4278.15L64550.7,4279.48C64550.7,4279.89 64550.8,4280.33 64550.8,4280.79L64550.7,4282.1L64550.3,4283.4L64549.6,4284.59L64548.7,4285.58L64547.6,4286.4L64546.4,4286.97C64545.6,4287.24 64544.8,4287.39 64543.8,4287.39C64543.8,4287.39 64541.4,4287.39 64541.4,4287.39L64541.4,4301.32C64541.4,4302.3 64541.6,4303.14 64542.2,4303.8C64542.5,4304.15 64542.8,4304.38 64543.2,4304.38L64545.6,4304.38L64547,4304.52L64548.3,4304.96L64549.5,4305.68L64550.5,4306.59C64551.6,4307.88 64552.3,4309.52 64552.3,4311.55C64552.3,4312.06 64552.2,4312.56 64552.1,4313.02L64551.7,4314.48L64550.9,4315.78L64549.8,4316.86C64548.4,4318.04 64546.7,4318.71 64544.5,4318.71L64543.2,4318.71C64540.1,4318.71 64537.3,4317.91 64534.9,4316.34C64532.4,4314.79 64530.5,4312.69 64529.1,4310.03C64527.8,4307.44 64527.1,4304.55 64527.1,4301.32L64527.1,4287.38C64526.3,4287.35 64525.5,4287.21 64524.9,4286.97L64523.7,4286.4L64522.6,4285.58L64521.7,4284.59L64521,4283.4L64520.6,4282.1L64520.5,4280.79C64520.5,4280.33 64520.5,4279.89 64520.6,4279.48L64521,4278.15L64521.6,4276.92L64522.6,4275.86L64523.7,4275.05L64524.9,4274.47C64525.5,4274.24 64526.3,4274.09 64527.1,4274.06Z" style="fill:white;"/>
                    </g>
                    <g transform="matrix(0.483336,0,0,0.483336,-30898.8,-1852.18)">
                        <path d="M64576.9,4319C64572.4,4319 64568.4,4317.98 64565,4316C64561.5,4313.99 64558.7,4311.22 64556.7,4307.69C64554.7,4304.21 64553.7,4300.22 64553.7,4295.71C64553.7,4291.15 64554.7,4287.14 64556.7,4283.66C64558.7,4280.13 64561.5,4277.36 64565,4275.35C64568.4,4273.37 64572.4,4272.35 64576.9,4272.35C64581.4,4272.35 64585.4,4273.37 64588.8,4275.35C64592.3,4277.36 64595.1,4280.13 64597.1,4283.66C64599.1,4287.14 64600.1,4291.15 64600.1,4295.71C64600.1,4300.21 64599.1,4304.19 64597.1,4307.67C64595.2,4311.21 64592.4,4313.99 64588.9,4316C64585.4,4317.98 64581.5,4319 64576.9,4319ZM64576.9,4305.38C64578.7,4305.38 64580.3,4305 64581.6,4304.19C64582.9,4303.39 64584,4302.29 64584.7,4300.89C64585.5,4299.4 64585.9,4297.67 64585.9,4295.71C64585.9,4293.74 64585.5,4291.99 64584.7,4290.48C64584,4289.06 64582.9,4287.95 64581.6,4287.16C64580.3,4286.35 64578.7,4285.97 64576.9,4285.97C64575.2,4285.97 64573.6,4286.35 64572.3,4287.16C64570.9,4287.96 64569.9,4289.08 64569.1,4290.5C64568.3,4292.02 64567.9,4293.75 64567.9,4295.71C64567.9,4297.65 64568.3,4299.38 64569.1,4300.86C64569.9,4302.27 64570.9,4303.38 64572.3,4304.19C64573.6,4305 64575.2,4305.38 64576.9,4305.38Z" style="fill:white;"/>
                    </g>
                    <g transform="matrix(0.483336,0,0,0.483336,-30898.8,-1852.18)">
                        <path d="M64618.1,4274.88C64618.7,4274.55 64619.2,4274.24 64619.9,4273.96C64622.4,4272.8 64625.1,4272.21 64628.1,4272.21C64631.8,4272.21 64634.6,4272.97 64636.4,4274.19C64637.8,4275.07 64638.6,4276.1 64639.1,4277.15L64639.5,4278.18L64639.7,4279.28L64639.7,4280.38C64639.7,4280.38 64639.6,4281.28 64639.5,4281.35C64639.4,4281.81 64639.3,4282.24 64639.1,4282.62L64638.4,4283.87L64637.4,4284.98L64636,4285.78C64634.7,4286.35 64633.2,4286.54 64631.4,4286.18L64631.4,4286.18C64628.9,4285.68 64626.7,4285.6 64624.7,4286.03C64623.1,4286.38 64621.8,4286.98 64620.8,4287.94C64620.1,4288.69 64619.8,4289.66 64619.8,4290.81L64619.8,4311.55C64619.8,4313.9 64619,4315.59 64617.8,4316.77C64616.6,4317.94 64614.9,4318.71 64612.6,4318.71C64610.2,4318.71 64608.5,4317.94 64607.4,4316.77C64606.2,4315.59 64605.4,4313.9 64605.4,4311.55L64605.4,4279.8C64605.4,4277.45 64606.2,4275.76 64607.4,4274.58C64608.5,4273.41 64610.2,4272.63 64612.6,4272.63C64614.9,4272.63 64616.6,4273.41 64617.8,4274.58C64617.9,4274.68 64618,4274.78 64618.1,4274.88Z" style="fill:white;"/>
                    </g>
                    <g transform="matrix(0.483336,0,0,0.483336,-30905.9,-1852.18)">
                        <path d="M64674.9,4335.76C64674,4335.76 64673,4335.56 64671.8,4335.04C64671.7,4335.03 64671.7,4335.02 64671.7,4335.01C64670.8,4334.6 64670,4334.1 64669.5,4333.57L64668.5,4332.49L64667.8,4331.18L64667.5,4329.72L64667.5,4328.28C64667.5,4327.51 64667.8,4326.66 64668.2,4325.76L64674.6,4311.4L64659.4,4282.62C64659.2,4282.18 64659,4281.74 64658.9,4281.31L64658.6,4279.86L64658.7,4278.35L64659.1,4276.92L64659.8,4275.72L64660.6,4274.66C64661.3,4274.07 64662,4273.57 64662.9,4273.2C64663.8,4272.83 64664.6,4272.65 64665.5,4272.61L64666.8,4272.69L64668.1,4273.05L64669.4,4273.67L64670.5,4274.53C64671,4275.1 64671.5,4275.8 64671.9,4276.64L64681.5,4295.64L64689.8,4276.84C64689.8,4276.81 64689.9,4276.78 64689.9,4276.75C64690.3,4275.87 64690.8,4275.16 64691.3,4274.59L64692.4,4273.68L64693.7,4273.01L64695.1,4272.66L64696.5,4272.63C64697.3,4272.69 64698.1,4272.89 64699,4273.27L64699,4273.27C64700,4273.67 64700.7,4274.15 64701.3,4274.67L64702.3,4275.74L64703,4277.06L64703.4,4278.53L64703.4,4279.98C64703.3,4280.78 64703.1,4281.65 64702.7,4282.55C64702.7,4282.55 64681,4331.34 64681,4331.3C64680.5,4332.7 64679.7,4333.72 64678.8,4334.43L64677.9,4335.01L64676.9,4335.44L64674.9,4335.76Z" style="fill:white;"/>
                    </g>
                </g>
                <g transform="matrix(0.221987,0,0,0.259735,-68.322,-33.9785)">
                    <path d="M1299.77,1089.73C1347.94,1089.72 1391.71,1070.73 1423.99,1039.83C1427.23,1036.7 1431.55,1034.95 1436.05,1034.95C1436.05,1034.93 1436.05,1034.93 1436.05,1034.93C1445.83,1034.93 1454.6,1040.95 1458.12,1050.09C1461.63,1059.22 1459.15,1069.57 1451.88,1076.12C1411.75,1112.78 1358.36,1135.21 1299.77,1135.21C1241.18,1135.21 1187.79,1112.78 1147.66,1076.12C1140.39,1069.57 1137.92,1059.22 1141.43,1050.09C1144.94,1040.95 1153.71,1034.93 1163.49,1034.93C1163.5,1034.93 1163.5,1034.93 1163.5,1034.95C1168,1034.95 1172.32,1036.7 1175.55,1039.83C1207.83,1070.73 1251.6,1089.72 1299.77,1089.73Z" style="fill:white;"/>
                </g>
            </g>
        </g>
    </g>
</svg>
